<svg width="253" height="84" viewBox="0 0 253 84" fill="none" xmlns="http://www.w3.org/2000/svg">
<g clip-path="url(#clip0)">
<path d="M232.853 0.0001433H20.1587C19.3834 0.0001433 18.6174 0.0001433 17.8442 0.0043433C17.1969 0.0085433 16.5548 0.0207443 15.9013 0.0310133C14.4816 0.0476071 13.0652 0.171663 11.6645 0.402104C10.2658 0.637562 8.91088 1.08147 7.6456 1.7188C6.38187 2.36153 5.22716 3.1967 4.22337 4.19399C3.2143 5.18848 2.37317 6.33798 1.73231 7.59828C1.08969 8.85607 0.644087 10.2039 0.410905 11.5953C0.175506 12.9848 0.0488358 14.3904 0.0320309 15.7995C0.0124107 16.4433 0.0103387 17.0893 0 17.7333V66.2732C0.0103387 66.9253 0.0124107 67.5569 0.0320309 68.2092C0.048841 69.6181 0.175511 71.0237 0.410905 72.4132C0.643443 73.8053 1.08907 75.154 1.73231 76.4122C2.37288 77.6684 3.21413 78.8133 4.22337 79.8022C5.22335 80.804 6.37881 81.6397 7.6456 82.2775C8.91087 82.9166 10.2656 83.3631 11.6645 83.6022C13.0655 83.8308 14.4817 83.9549 15.9013 83.9735C16.5548 83.9878 17.1969 83.9959 17.8442 83.9959C18.6174 84.0002 19.3835 84.0001 20.1587 84.0001H232.853C233.613 84.0001 234.385 84.0002 235.145 83.9959C235.789 83.9959 236.449 83.9878 237.094 83.9735C238.511 83.9559 239.924 83.8318 241.322 83.6022C242.726 83.3614 244.085 82.915 245.357 82.2775C246.622 81.6393 247.777 80.8036 248.776 79.8022C249.782 78.8094 250.625 77.6654 251.274 76.4122C251.912 75.153 252.354 73.8045 252.583 72.4132C252.819 71.0235 252.95 69.6183 252.975 68.2092C252.984 67.5569 252.984 66.9253 252.984 66.2732C253 65.5103 253 64.7515 253 63.9762V20.026C253 19.257 253 18.4941 252.984 17.7333C252.984 17.0893 252.984 16.4433 252.975 15.7994C252.95 14.3902 252.819 12.9849 252.583 11.5952C252.353 10.2046 251.912 8.8569 251.274 7.5982C249.969 5.07206 247.899 3.0158 245.357 1.71862C244.085 1.08283 242.725 0.639048 241.322 0.401915C239.924 0.170459 238.511 0.0463596 237.094 0.0307193C236.449 0.0204713 235.789 0.0081653 235.145 0.0040703C234.385 -0.0001297 233.613 -0.0001297 232.853 -0.0001297V0.0001433Z" fill="#A6A6A6"/>
<path d="M17.8545 82.1625C17.2103 82.1625 16.5817 82.1543 15.9426 82.14C14.6186 82.1229 13.2977 82.0084 11.9908 81.7975C10.7721 81.5891 9.59153 81.2013 8.488 80.6469C7.3946 80.0972 6.39733 79.3764 5.53439 78.5121C4.65897 77.658 3.93014 76.6673 3.37678 75.5794C2.81732 74.4845 2.43015 73.3108 2.22874 72.0993C2.01123 70.7975 1.89356 69.4813 1.87672 68.1618C1.86331 67.7189 1.84576 66.2443 1.84576 66.2443V17.7331C1.84576 17.7331 1.86445 16.2812 1.87682 15.8546C1.89295 14.5372 2.00994 13.223 2.22679 11.9232C2.42858 10.7084 2.81605 9.53137 3.37581 8.43282C3.92713 7.34568 4.65192 6.35431 5.52207 5.49713C6.39124 4.63181 7.39171 3.90727 8.48697 3.34994C9.58795 2.7974 10.7663 2.41234 11.9825 2.20767C13.2938 1.99466 14.6192 1.87949 15.9478 1.86314L17.8555 1.8375H235.134L237.065 1.86417C238.381 1.87971 239.695 1.99385 240.994 2.20561C242.222 2.41285 243.413 2.80059 244.527 3.3561C246.721 4.47927 248.506 6.25624 249.632 8.43795C250.183 9.52892 250.565 10.6964 250.764 11.9007C250.983 13.2111 251.106 14.5357 251.131 15.8638C251.138 16.4585 251.138 17.0974 251.138 17.7331C251.154 18.5206 251.154 19.2702 251.154 20.0259V63.9761C251.154 64.739 251.154 65.4835 251.138 66.234C251.138 66.9169 251.138 67.5425 251.129 68.1864C251.105 69.4908 250.984 70.7918 250.768 72.0787C250.571 73.299 250.186 74.4818 249.626 75.5857C249.069 76.6618 248.344 77.6439 247.479 78.4957C246.615 79.3646 245.616 80.0897 244.52 80.643C243.41 81.2015 242.221 81.5908 240.994 81.7975C239.687 82.0095 238.366 82.124 237.042 82.14C236.423 82.1543 235.774 82.1625 235.145 82.1625L232.853 82.1667L17.8545 82.1625Z" fill="black"/>
<path d="M52.3676 42.6314C52.3904 40.8786 52.8591 39.16 53.7302 37.6355C54.6014 36.111 55.8466 34.8302 57.35 33.9121C56.3949 32.5573 55.1349 31.4423 53.6701 30.6557C52.2053 29.8692 50.576 29.4327 48.9117 29.381C45.3614 29.0108 41.9195 31.4911 40.1103 31.4911C38.2661 31.4911 35.4805 29.4177 32.481 29.479C30.5408 29.5413 28.6499 30.1017 26.9926 31.1056C25.3353 32.1095 23.9681 33.5227 23.0241 35.2075C18.9351 42.2392 21.9851 52.5734 25.902 58.2573C27.8617 61.0405 30.1521 64.1495 33.1489 64.0392C36.0815 63.9184 37.1768 62.1818 40.7167 62.1818C44.2237 62.1818 45.2513 64.0392 48.3089 63.9692C51.4557 63.9184 53.4384 61.1735 55.3293 58.364C56.7374 56.3808 57.8209 54.189 58.5397 51.8697C56.7114 51.1017 55.1513 49.8161 54.0537 48.1733C52.9562 46.5304 52.3698 44.6031 52.3676 42.6314Z" fill="white"/>
<path d="M46.5923 25.6429C48.308 23.597 49.1533 20.9674 48.9487 18.3126C46.3273 18.586 43.906 19.8304 42.167 21.7977C41.3168 22.7588 40.6656 23.877 40.2507 25.0882C39.8358 26.2994 39.6653 27.58 39.7489 28.8567C41.0601 28.8701 42.3572 28.5878 43.5425 28.0311C44.7279 27.4744 45.7707 26.6579 46.5923 25.6429Z" fill="white"/>
<path d="M89.4376 56.9933H79.43L77.0267 64.0418H72.7879L82.2669 37.964H86.6709L96.15 64.0418H91.8389L89.4376 56.9933ZM80.4665 53.7407H88.3992L84.4886 42.3015H84.3792L80.4665 53.7407Z" fill="white"/>
<path d="M116.621 54.5364C116.621 60.4447 113.438 64.2407 108.633 64.2407C107.416 64.304 106.206 64.0255 105.141 63.4372C104.075 62.8489 103.199 61.9746 102.61 60.9143H102.52V70.3315H98.5904V45.029H102.394V48.1913H102.466C103.081 47.1361 103.973 46.2663 105.046 45.6744C106.119 45.0826 107.334 44.7908 108.561 44.8301C113.419 44.8301 116.621 48.6445 116.621 54.5364ZM112.583 54.5364C112.583 50.6871 110.58 48.1564 107.524 48.1564C104.522 48.1564 102.503 50.7404 102.503 54.5364C102.503 58.3673 104.522 60.9328 107.524 60.9328C110.58 60.9328 112.583 58.4206 112.583 54.5364Z" fill="white"/>
<path d="M137.69 54.5364C137.69 60.4447 134.506 64.2407 129.701 64.2407C128.484 64.3039 127.274 64.0255 126.209 63.4372C125.144 62.8489 124.267 61.9746 123.679 60.9143H123.588V70.3315H119.659V45.029H123.462V48.1913H123.534C124.149 47.1361 125.041 46.2663 126.114 45.6744C127.187 45.0826 128.402 44.7908 129.629 44.8301C134.487 44.8301 137.69 48.6445 137.69 54.5364ZM133.651 54.5364C133.651 50.6871 131.648 48.1564 128.593 48.1564C125.591 48.1564 123.571 50.7404 123.571 54.5364C123.571 58.3673 125.591 60.9328 128.593 60.9328C131.648 60.9328 133.651 58.4206 133.651 54.5364H133.651Z" fill="white"/>
<path d="M151.614 56.7759C151.905 59.3619 154.434 61.0599 157.891 61.0599C161.202 61.0599 163.585 59.3618 163.585 57.0301C163.585 55.0059 162.148 53.794 158.745 52.9634L155.343 52.1492C150.522 50.9926 148.284 48.7531 148.284 45.1191C148.284 40.6197 152.231 37.5292 157.837 37.5292C163.385 37.5292 167.188 40.6197 167.316 45.1191H163.35C163.112 42.5167 160.946 40.9458 157.781 40.9458C154.616 40.9458 152.45 42.5352 152.45 44.8484C152.45 46.6921 153.834 47.7769 157.218 48.6074L160.11 49.3129C165.497 50.5782 167.735 52.7275 167.735 56.5419C167.735 61.4207 163.823 64.4764 157.6 64.4764C151.777 64.4764 147.846 61.4925 147.592 56.7757L151.614 56.7759Z" fill="white"/>
<path d="M176.215 40.5296V45.029H179.855V48.1195H176.215V58.6011C176.215 60.2294 176.944 60.9882 178.544 60.9882C178.976 60.9807 179.407 60.9506 179.836 60.8979V63.9699C179.117 64.1035 178.386 64.1639 177.654 64.1504C173.779 64.1504 172.267 62.7046 172.267 59.0173V48.1195H169.484V45.029H172.267V40.5296H176.215Z" fill="white"/>
<path d="M181.963 54.5364C181.963 48.5543 185.51 44.7952 191.042 44.7952C196.591 44.7952 200.122 48.5542 200.122 54.5364C200.122 60.535 196.61 64.2776 191.042 64.2776C185.475 64.2776 181.963 60.535 181.963 54.5364ZM196.119 54.5364C196.119 50.4328 194.225 48.0109 191.042 48.0109C187.858 48.0109 185.967 50.4513 185.967 54.5364C185.967 58.6564 187.858 61.06 191.042 61.06C194.225 61.06 196.119 58.6564 196.119 54.5364H196.119Z" fill="white"/>
<path d="M203.362 45.029H207.109V48.2651H207.2C207.453 47.2544 208.05 46.3612 208.888 45.7356C209.727 45.1101 210.756 44.7903 211.804 44.83C212.257 44.8285 212.709 44.8773 213.15 44.9757V48.626C212.579 48.4525 211.982 48.3729 211.385 48.3902C210.814 48.3672 210.245 48.4672 209.717 48.6832C209.189 48.8993 208.714 49.2263 208.325 49.6419C207.936 50.0575 207.642 50.5517 207.464 51.0907C207.285 51.6297 207.226 52.2007 207.291 52.7645V64.0418H203.362L203.362 45.029Z" fill="white"/>
<path d="M231.266 58.4575C230.737 61.909 227.353 64.2776 223.024 64.2776C217.455 64.2776 213.999 60.5719 213.999 54.6266C213.999 48.663 217.474 44.7952 222.859 44.7952C228.154 44.7952 231.485 48.4087 231.485 54.1734V55.5105H217.965V55.7464C217.903 56.4461 217.991 57.151 218.224 57.8143C218.457 58.4775 218.829 59.084 219.316 59.5933C219.803 60.1027 220.394 60.5033 221.049 60.7685C221.704 61.0337 222.408 61.1576 223.115 61.1317C224.043 61.2181 224.975 61.0045 225.771 60.5227C226.568 60.0409 227.186 59.3166 227.535 58.4575L231.266 58.4575ZM217.984 52.783H227.554C227.589 52.1538 227.493 51.5242 227.272 50.9337C227.05 50.3432 226.708 49.8044 226.268 49.3513C225.827 48.8982 225.296 48.5405 224.71 48.3007C224.123 48.0608 223.493 47.944 222.859 47.9575C222.219 47.9537 221.584 48.0758 220.992 48.3168C220.4 48.5577 219.862 48.9128 219.409 49.3614C218.956 49.81 218.596 50.3434 218.352 50.9307C218.107 51.5179 217.982 52.1475 217.984 52.783V52.783Z" fill="white"/>
<path d="M77.674 23.6322H79.3609C79.6513 23.6681 79.946 23.6439 80.2265 23.561C80.507 23.4782 80.7671 23.3386 80.9906 23.1509C81.2141 22.9632 81.396 22.7316 81.5249 22.4707C81.6537 22.2097 81.7268 21.9251 81.7394 21.6347C81.7394 20.4791 80.864 19.7326 79.3795 19.7326C79.082 19.6913 78.7791 19.7097 78.4889 19.7866C78.1986 19.8634 77.9268 19.9973 77.6895 20.1802C77.4522 20.3632 77.2542 20.5915 77.1072 20.8517C76.9602 21.1119 76.8672 21.3987 76.8337 21.6952H74.9816C75.0135 21.157 75.1566 20.631 75.4019 20.1501C75.6473 19.6692 75.9898 19.2436 76.4079 18.8998C76.8261 18.556 77.311 18.3014 77.8326 18.1519C78.3541 18.0023 78.901 17.961 79.4393 18.0305C81.9231 18.0305 83.672 19.4117 83.672 21.3999C83.6779 22.066 83.4535 22.7139 83.0364 23.2355C82.6193 23.7571 82.0347 24.1208 81.3802 24.2659V24.4135C82.1561 24.4477 82.8868 24.7856 83.4126 25.3534C83.9384 25.9212 84.2165 26.6727 84.1861 27.4436C84.1287 27.9977 83.9605 28.5349 83.6913 29.0237C83.4221 29.5125 83.0575 29.9429 82.6186 30.2899C82.1798 30.6369 81.6757 30.8933 81.1358 31.0442C80.5959 31.1952 80.0311 31.2375 79.4745 31.1688C78.9167 31.2443 78.3493 31.2076 77.8062 31.0606C77.263 30.9137 76.7552 30.6597 76.313 30.3137C75.8708 29.9677 75.5033 29.5368 75.2324 29.0467C74.9614 28.5566 74.7926 28.0173 74.736 27.461H76.6169C76.7305 28.6597 77.8392 29.4329 79.4745 29.4329C81.1097 29.4329 82.1771 28.5644 82.1771 27.3401C82.1771 26.0983 81.1716 25.3334 79.4146 25.3334H77.674V23.6322Z" fill="white"/>
<path d="M86.3231 28.1911C86.3231 26.4889 87.6011 25.5076 89.864 25.3682L92.4428 25.2205V24.4043C92.4428 23.4056 91.7801 22.8416 90.4938 22.8416C89.4449 22.8416 88.7202 23.2241 88.5096 23.8926H86.6906C86.8826 22.2684 88.4229 21.2266 90.5825 21.2266C92.9693 21.2266 94.3155 22.4068 94.3155 24.4043V30.8653H92.5048V29.5364H92.3561C92.0544 30.0131 91.6307 30.4017 91.1283 30.6625C90.6259 30.9234 90.0628 31.0471 89.4965 31.0211C89.0968 31.0624 88.6929 31.02 88.3107 30.8968C87.9286 30.7735 87.5766 30.5721 87.2776 30.3054C86.9786 30.0388 86.7392 29.7129 86.5748 29.3487C86.4104 28.9845 86.3246 28.5902 86.3231 28.1911ZM92.4428 27.3831V26.5925L90.1179 26.7401C88.8068 26.8273 88.2122 27.2703 88.2122 28.1039C88.2122 28.955 88.9554 29.4502 89.9776 29.4502C90.277 29.4804 90.5796 29.4503 90.8671 29.3619C91.1547 29.2736 91.4214 29.1286 91.6514 28.9358C91.8814 28.7429 92.07 28.506 92.206 28.2393C92.3419 27.9725 92.4225 27.6814 92.4428 27.3831Z" fill="white"/>
<path d="M99.3017 22.98V30.8653H97.4229V21.4091H103.691V22.9799L99.3017 22.98Z" fill="white"/>
<path d="M115.078 26.1331C115.078 29.1375 113.548 31.0212 111.145 31.0212C110.555 31.0612 109.966 30.9329 109.447 30.6515C108.928 30.3702 108.5 29.9473 108.215 29.4328H108.066V34.0091H106.188V21.4091H107.996V22.9719H108.137C108.427 22.4394 108.86 21.997 109.387 21.6936C109.915 21.3901 110.517 21.2374 111.126 21.2523C113.548 21.2522 115.078 23.1277 115.078 26.1331ZM113.146 26.1331C113.146 24.1356 112.194 22.9288 110.602 22.9288C109.02 22.9288 108.031 24.1613 108.031 26.1413C108.031 28.1121 109.02 29.3457 110.594 29.3457C112.194 29.3456 113.146 28.1388 113.146 26.1331Z" fill="white"/>
<path d="M117.581 34.2522V32.6454C117.784 32.671 117.989 32.6827 118.194 32.6802C118.594 32.7097 118.991 32.5913 119.309 32.3477C119.627 32.1042 119.843 31.7526 119.916 31.3605L120.056 30.9001L116.61 21.4091H118.656L121.043 28.9201H121.192L123.57 21.4091H125.563L122.013 31.256C121.2 33.5569 120.3 34.2952 118.359 34.2952C118.202 34.2952 117.756 34.2778 117.581 34.2522Z" fill="white"/>
<path d="M127.027 28.1818H128.897C129.081 29.0155 129.868 29.4502 130.968 29.4502C132.219 29.4502 132.987 28.9027 132.987 28.0516C132.987 27.1401 132.298 26.7053 130.968 26.7053H129.543V25.2554H130.943C132.079 25.2554 132.657 24.8217 132.657 24.0311C132.657 23.3369 132.097 22.8068 130.943 22.8068C129.892 22.8068 129.124 23.2498 129.002 23.9963H127.192C127.327 23.1385 127.796 22.3678 128.498 21.8498C129.199 21.3319 130.077 21.1081 130.943 21.2267C133.206 21.2267 134.501 22.2428 134.501 23.8404C134.511 24.2853 134.368 24.7203 134.094 25.0726C133.821 25.425 133.434 25.6734 132.998 25.7763V25.924C133.517 25.9905 133.993 26.2439 134.336 26.6361C134.68 27.0283 134.866 27.532 134.86 28.0517C134.86 29.8493 133.32 31.0386 130.968 31.0386C128.889 31.0386 127.2 30.0921 127.027 28.1818Z" fill="white"/>
<path d="M137.566 30.8653V21.4091H139.428V27.9132H139.577L143.964 21.4091H145.827V30.8653H143.964V24.3264H143.824L139.428 30.8653L137.566 30.8653Z" fill="white"/>
<path d="M156.086 22.98H153.088V30.8653H151.207V22.98H148.209V21.4092H156.086V22.98Z" fill="white"/>
<path d="M166.207 28.3121C165.951 29.1762 165.398 29.9236 164.643 30.4237C163.889 30.9237 162.982 31.1446 162.08 31.0478C161.453 31.0642 160.829 30.9449 160.253 30.6981C159.677 30.4513 159.162 30.0829 158.744 29.6185C158.325 29.1541 158.013 28.6048 157.83 28.0088C157.647 27.4128 157.596 26.7843 157.682 26.1669C157.599 25.5477 157.65 24.9178 157.833 24.32C158.016 23.7222 158.326 23.1704 158.742 22.7019C159.158 22.2335 159.671 21.8593 160.245 21.6048C160.82 21.3502 161.443 21.2213 162.072 21.2266C164.721 21.2266 166.321 23.0242 166.321 25.9936V26.6448H159.598V26.7494C159.568 27.0965 159.612 27.4459 159.726 27.7752C159.841 28.1046 160.023 28.4065 160.262 28.6616C160.501 28.9168 160.791 29.1194 161.113 29.2567C161.435 29.3939 161.783 29.4626 162.134 29.4584C162.583 29.5117 163.038 29.4312 163.441 29.2271C163.844 29.023 164.176 28.7044 164.397 28.312L166.207 28.3121ZM159.598 25.2646H164.405C164.428 24.9474 164.385 24.6288 164.278 24.3292C164.17 24.0296 164.001 23.7556 163.78 23.5249C163.56 23.2943 163.293 23.1119 162.997 22.9897C162.702 22.8674 162.384 22.8079 162.063 22.8149C161.738 22.8106 161.416 22.8709 161.115 22.9925C160.813 23.1141 160.54 23.2943 160.31 23.5227C160.08 23.7511 159.899 24.0229 159.777 24.3221C159.654 24.6213 159.594 24.9417 159.598 25.2646H159.598Z" fill="white"/>
<path d="M174.173 21.4091H178.465C180.328 21.4091 181.42 22.3463 181.42 23.8136C181.423 24.2792 181.265 24.7317 180.972 25.0953C180.679 25.4589 180.27 25.7116 179.812 25.8111V25.9587C180.368 25.9936 180.889 26.2393 181.268 26.645C181.647 27.0507 181.854 27.5854 181.847 28.1387C181.847 29.7886 180.598 30.8652 178.509 30.8652H174.173V21.4091ZM176.035 22.8416V25.2902H177.898C179.033 25.2902 179.576 24.8565 179.576 24.0567C179.576 23.3194 179.103 22.8416 178.106 22.8416L176.035 22.8416ZM176.035 26.6622V29.4328H178.263C179.374 29.4328 179.969 28.9458 179.969 28.0516C179.969 27.1052 179.296 26.6622 178.028 26.6622L176.035 26.6622Z" fill="white"/>
</g>
<defs>
<clipPath id="clip0">
<rect width="253" height="84" fill="white"/>
</clipPath>
</defs>
</svg>
