<svg width="285" height="84" viewBox="0 0 285 84" fill="none" xmlns="http://www.w3.org/2000/svg">
<path d="M274.444 0H10.5556C4.72588 0 0 4.70101 0 10.5V73.5C0 79.299 4.72588 84 10.5556 84H274.444C280.274 84 285 79.299 285 73.5V10.5C285 4.70101 280.274 0 274.444 0Z" fill="black"/>
<path d="M274.444 1.68C276.796 1.68 279.051 2.60925 280.714 4.26332C282.377 5.91739 283.311 8.16079 283.311 10.5V73.5C283.311 75.8392 282.377 78.0826 280.714 79.7367C279.051 81.3907 276.796 82.32 274.444 82.32H10.5556C8.20397 82.32 5.9487 81.3907 4.28588 79.7367C2.62305 78.0826 1.68889 75.8392 1.68889 73.5V10.5C1.68889 8.16079 2.62305 5.91739 4.28588 4.26332C5.9487 2.60925 8.20397 1.68 10.5556 1.68H274.444ZM274.444 0H10.5556C7.75605 0 5.0712 1.10625 3.09165 3.07538C1.1121 5.04451 0 7.71523 0 10.5V73.5C0 76.2848 1.1121 78.9555 3.09165 80.9246C5.0712 82.8938 7.75605 84 10.5556 84H274.444C277.244 84 279.929 82.8938 281.908 80.9246C283.888 78.9555 285 76.2848 285 73.5V10.5C285 7.71523 283.888 5.04451 281.908 3.07538C279.929 1.10625 277.244 0 274.444 0Z" fill="#A6A6A6"/>
<path d="M143.851 45.675C142.072 45.6792 140.335 46.2079 138.858 47.1943C137.382 48.1808 136.232 49.5807 135.555 51.2169C134.879 52.8532 134.705 54.6523 135.056 56.3868C135.407 58.1214 136.267 59.7134 137.528 60.9616C138.789 62.2098 140.393 63.058 142.138 63.3991C143.884 63.7403 145.692 63.5589 147.333 62.8779C148.975 62.197 150.377 61.0471 151.362 59.5736C152.346 58.1002 152.87 56.3693 152.866 54.6C152.883 53.4197 152.661 52.2479 152.214 51.1546C151.766 50.0613 151.102 49.0687 150.261 48.236C149.42 47.4032 148.419 46.7473 147.318 46.3074C146.217 45.8674 145.038 45.6523 143.851 45.675ZM143.851 60.018C142.761 60.0938 141.673 59.8417 140.729 59.2943C139.784 58.7469 139.028 57.9297 138.556 56.9487C138.085 55.9678 137.922 54.8685 138.087 53.7939C138.252 52.7193 138.739 51.719 139.483 50.923C140.227 50.127 141.195 49.5722 142.261 49.3306C143.326 49.0891 144.44 49.172 145.458 49.5686C146.476 49.9652 147.35 50.6571 147.967 51.5544C148.584 52.4517 148.915 53.5129 148.918 54.6C148.952 55.2888 148.847 55.9775 148.609 56.6253C148.371 57.2731 148.005 57.867 147.533 58.372C147.061 58.8769 146.492 59.2827 145.859 59.5654C145.227 59.8481 144.544 60.002 143.851 60.018ZM124.176 45.675C122.397 45.6792 120.659 46.2079 119.183 47.1943C117.706 48.1808 116.557 49.5807 115.88 51.2169C115.203 52.8532 115.029 54.6523 115.38 56.3868C115.731 58.1214 116.592 59.7134 117.852 60.9616C119.113 62.2098 120.718 63.058 122.463 63.3991C124.208 63.7403 126.016 63.5589 127.658 62.8779C129.299 62.197 130.701 61.0471 131.686 59.5736C132.671 58.1002 133.194 56.3693 133.19 54.6C133.207 53.4197 132.985 52.2479 132.538 51.1546C132.091 50.0613 131.426 49.0687 130.585 48.236C129.744 47.4032 128.743 46.7473 127.642 46.3074C126.541 45.8674 125.362 45.6523 124.176 45.675ZM124.176 60.018C123.085 60.0938 121.997 59.8417 121.053 59.2943C120.109 58.7469 119.352 57.9297 118.881 56.9487C118.41 55.9678 118.246 54.8685 118.412 53.7939C118.577 52.7193 119.063 51.719 119.808 50.923C120.552 50.127 121.52 49.5722 122.585 49.3306C123.651 49.0891 124.765 49.172 125.782 49.5686C126.8 49.9652 127.674 50.6571 128.291 51.5544C128.908 52.4517 129.24 53.5129 129.242 54.6C129.276 55.2888 129.171 55.9775 128.933 56.6253C128.696 57.2731 128.33 57.867 127.858 58.372C127.385 58.8769 126.816 59.2827 126.184 59.5654C125.552 59.8481 124.869 60.002 124.176 60.018ZM100.784 48.426V52.206H109.904C109.761 53.9864 109.017 55.6664 107.793 56.973C106.878 57.9002 105.778 58.626 104.564 59.1035C103.349 59.581 102.047 59.7995 100.742 59.745C98.0547 59.745 95.4772 58.683 93.5768 56.7926C91.6765 54.9023 90.6088 52.3384 90.6088 49.665C90.6088 46.9916 91.6765 44.4277 93.5768 42.5374C95.4772 40.647 98.0547 39.585 100.742 39.585C103.319 39.5469 105.807 40.5202 107.667 42.294L110.348 39.627C109.089 38.3891 107.596 37.4134 105.953 36.7571C104.311 36.1008 102.554 35.7771 100.784 35.805C98.9076 35.7323 97.0354 36.0373 95.2799 36.7016C93.5245 37.366 91.9219 38.376 90.5682 39.6711C89.2146 40.9663 88.1377 42.5199 87.4021 44.239C86.6665 45.9581 86.2873 47.8072 86.2873 49.6755C86.2873 51.5438 86.6665 53.3929 87.4021 55.112C88.1377 56.831 89.2146 58.3847 90.5682 59.6799C91.9219 60.975 93.5245 61.985 95.2799 62.6494C97.0354 63.3137 98.9076 63.6186 100.784 63.546C102.59 63.6177 104.391 63.3087 106.068 62.6391C107.746 61.9696 109.262 60.9546 110.517 59.661C112.734 57.2385 113.915 54.0523 113.81 50.778C113.818 49.9899 113.754 49.2028 113.62 48.426H100.784ZM196.439 51.366C195.888 49.7547 194.859 48.3478 193.486 47.3316C192.114 46.3153 190.464 45.7376 188.754 45.675C187.6 45.6728 186.457 45.9061 185.396 46.3607C184.336 46.8153 183.38 47.4814 182.589 48.3179C181.797 49.1544 181.187 50.1435 180.795 51.224C180.403 52.3045 180.238 53.4535 180.31 54.6C180.292 56.517 180.898 58.3883 182.037 59.9345C183.176 61.4808 184.788 62.6188 186.631 63.1788C188.474 63.7388 190.45 63.6906 192.264 63.0414C194.077 62.3922 195.63 61.1769 196.692 59.577L193.631 57.477C193.175 58.2336 192.528 58.8584 191.754 59.2893C190.98 59.7203 190.106 59.9426 189.219 59.934C188.304 59.9716 187.399 59.7329 186.623 59.2495C185.846 58.766 185.236 58.0602 184.87 57.225L196.882 52.29L196.439 51.366ZM184.194 54.348C184.152 53.6957 184.24 53.0415 184.455 52.4236C184.669 51.8057 185.006 51.2366 185.444 50.7497C185.882 50.2627 186.414 49.8677 187.008 49.5877C187.602 49.3077 188.246 49.1483 188.902 49.119C189.582 49.0777 190.26 49.237 190.849 49.5769C191.439 49.9169 191.915 50.4223 192.217 51.03L184.194 54.348ZM174.441 63H178.389V36.75H174.441V63ZM167.981 47.67H167.833C167.244 47.0019 166.516 46.4684 165.7 46.1059C164.883 45.7435 163.998 45.5607 163.104 45.57C160.797 45.6813 158.622 46.6713 157.029 48.3348C155.435 49.9984 154.547 52.2079 154.547 54.5055C154.547 56.8031 155.435 59.0126 157.029 60.6762C158.622 62.3397 160.797 63.3297 163.104 63.441C163.999 63.4589 164.887 63.2799 165.705 62.9169C166.522 62.5539 167.249 62.0157 167.833 61.341H167.981V62.622C167.981 66.045 166.144 67.872 163.189 67.872C162.202 67.8504 161.243 67.5375 160.435 66.9729C159.627 66.4083 159.005 65.6175 158.65 64.701L155.23 66.108C155.862 67.6877 156.962 69.0394 158.383 69.9843C159.804 70.9292 161.48 71.4228 163.189 71.4C167.812 71.4 171.633 68.691 171.633 62.097V46.2H167.981V47.67ZM163.442 60.018C162.059 59.9322 160.761 59.3252 159.812 58.3205C158.863 57.3158 158.334 55.9891 158.334 54.6105C158.334 53.2319 158.863 51.9052 159.812 50.9005C160.761 49.8958 162.059 49.2888 163.442 49.203C164.118 49.232 164.782 49.396 165.393 49.6852C166.004 49.9745 166.55 50.383 166.999 50.8865C167.448 51.39 167.791 51.9783 168.007 52.6162C168.222 53.2542 168.307 53.9288 168.256 54.6C168.313 55.2734 168.233 55.9515 168.019 56.5932C167.806 57.2349 167.464 57.8269 167.014 58.3333C166.564 58.8398 166.016 59.2502 165.402 59.5398C164.788 59.8293 164.121 59.992 163.442 60.018ZM214.932 36.75H205.474V63H209.422V53.046H214.932C216.057 53.1264 217.187 52.9754 218.251 52.6023C219.315 52.2293 220.29 51.6422 221.116 50.8777C221.941 50.1133 222.6 49.1878 223.05 48.1589C223.501 47.1301 223.733 46.0201 223.733 44.898C223.733 43.7759 223.501 42.6659 223.05 41.637C222.6 40.6082 221.941 39.6827 221.116 38.9183C220.29 38.1538 219.315 37.5667 218.251 37.1937C217.187 36.8206 216.057 36.6696 214.932 36.75ZM214.932 49.35H209.422V40.404H215.017C215.61 40.404 216.197 40.5202 216.746 40.7461C217.294 40.9719 217.792 41.303 218.211 41.7203C218.631 42.1376 218.964 42.633 219.191 43.1782C219.418 43.7235 219.534 44.3078 219.534 44.898C219.534 45.4882 219.418 46.0725 219.191 46.6178C218.964 47.163 218.631 47.6584 218.211 48.0757C217.792 48.493 217.294 48.8241 216.746 49.0499C216.197 49.2758 215.61 49.392 215.017 49.392L214.932 49.35ZM239.294 45.591C237.857 45.5028 236.425 45.8358 235.175 46.5486C233.926 47.2615 232.914 48.3231 232.264 49.602L235.748 51.051C236.1 50.4197 236.628 49.9034 237.269 49.5643C237.909 49.2251 238.635 49.0778 239.358 49.14C239.859 49.0818 240.367 49.1234 240.852 49.2625C241.336 49.4015 241.788 49.6353 242.181 49.95C242.574 50.2647 242.901 50.6541 243.141 51.0956C243.381 51.537 243.53 52.0215 243.58 52.521V52.773C242.311 52.1092 240.898 51.7632 239.463 51.765C235.706 51.765 231.863 53.865 231.863 57.687C231.9 58.4994 232.101 59.296 232.454 60.0296C232.807 60.7633 233.304 61.4189 233.917 61.9576C234.529 62.4963 235.244 62.907 236.019 63.1655C236.794 63.4239 237.614 63.5247 238.429 63.462C239.42 63.5165 240.407 63.308 241.29 62.8578C242.173 62.4075 242.919 61.7319 243.453 60.9H243.58V63H247.38V52.899C247.38 48.3 243.876 45.633 239.379 45.633L239.294 45.591ZM238.809 59.976C237.521 59.976 235.727 59.325 235.727 57.75C235.727 55.65 237.964 54.936 239.949 54.936C241.203 54.9052 242.442 55.2098 243.538 55.818C243.405 56.9584 242.862 58.0124 242.008 58.7847C241.154 59.557 240.047 59.9951 238.893 60.018L238.809 59.976ZM261.229 46.2L256.711 57.582H256.584L251.898 46.2H247.676L254.706 62.118L250.694 70.959H254.811L265.62 46.2H261.229ZM225.762 63H229.689V36.75H225.762V63Z" fill="white"/>
<path d="M22.04 15.834C21.3443 16.6522 20.9894 17.704 21.0478 18.774V65.226C20.9759 66.2978 21.3326 67.3544 22.04 68.166L22.1878 68.334L48.3444 42.315V41.685L22.1878 15.687L22.04 15.834Z" fill="url(#paint0_linear)"/>
<path d="M57 50.988L48.3445 42.315V41.685L57 33.012L57.19 33.138L67.5556 38.976C70.5112 40.635 70.5112 43.365 67.5556 45.045L57.2323 50.883L57 50.988Z" fill="url(#paint1_linear)"/>
<path d="M57.2533 50.862L48.3444 42L22.04 68.166C22.6365 68.6942 23.4001 68.9981 24.1983 69.0249C24.9965 69.0518 25.7789 68.7999 26.41 68.313L57.2533 50.862Z" fill="url(#paint2_linear)"/>
<path d="M57.2533 33.138L26.41 15.708C25.783 15.2143 25.0012 14.9563 24.2019 14.9794C23.4026 15.0024 22.6371 15.305 22.04 15.834L48.3444 42L57.2533 33.138Z" fill="url(#paint3_linear)"/>
<path opacity="0.2" d="M57 50.673L26.41 67.998C25.8019 68.4545 25.0607 68.7015 24.2989 68.7015C23.537 68.7015 22.7959 68.4545 22.1878 67.998L22.04 68.145L22.1878 68.313C22.7959 68.7695 23.537 69.0165 24.2989 69.0165C25.0607 69.0165 25.8019 68.7695 26.41 68.313L57.2533 50.862L57 50.673Z" fill="black"/>
<path opacity="0.12" d="M22.04 67.872C21.3619 67.0391 21.0296 65.9797 21.1111 64.911V65.226C21.0393 66.2978 21.3959 67.3544 22.1033 68.166L22.2511 68.019L22.04 67.872Z" fill="black"/>
<path opacity="0.12" d="M67.5556 44.73L57 50.673L57.19 50.862L67.5556 45.024C68.1674 44.7666 68.6982 44.3499 69.092 43.8178C69.4858 43.2856 69.7281 42.6576 69.7933 42C69.6613 42.5976 69.3901 43.156 69.0014 43.6302C68.6127 44.1044 68.1174 44.4811 67.5556 44.73Z" fill="black"/>
<path opacity="0.25" d="M26.41 16.002L67.5555 39.27C68.1174 39.5189 68.6126 39.8956 69.0013 40.3698C69.39 40.844 69.6613 41.4024 69.7933 42C69.7281 41.3424 69.4858 40.7144 69.092 40.1822C68.6982 39.6501 68.1674 39.2334 67.5555 38.976L26.41 15.708C23.4755 14.028 21.0477 15.414 21.0477 18.774V19.089C21.1111 15.729 23.4755 14.343 26.41 16.002Z" fill="white"/>
<path d="M88.8989 29.967H87.3578V25.767H88.6667C89.2556 25.131 89.6984 24.3753 89.9645 23.5522C90.2306 22.729 90.3136 21.8582 90.2078 21V14.7H98.6522V25.746H100.067V29.946H98.5044V27.3H88.8989V29.967ZM91.8333 21C91.9275 22.6869 91.5082 24.3629 90.63 25.809H96.9633V16.254H91.8333V21Z" fill="white" stroke="white" stroke-width="0.2" stroke-miterlimit="10"/>
<path d="M112.754 25.662C112.147 26.2684 111.424 26.7495 110.629 27.0777C109.834 27.406 108.981 27.575 108.121 27.575C107.26 27.575 106.407 27.406 105.612 27.0777C104.817 26.7495 104.095 26.2684 103.487 25.662C102.279 24.4073 101.605 22.7372 101.605 21C101.605 19.2628 102.279 17.5927 103.487 16.338C104.095 15.7316 104.817 15.2505 105.612 14.9223C106.407 14.594 107.26 14.425 108.121 14.425C108.981 14.425 109.834 14.594 110.629 14.9223C111.424 15.2505 112.147 15.7316 112.754 16.338C113.364 16.9512 113.845 17.6795 114.167 18.4802C114.49 19.2808 114.648 20.1375 114.633 21C114.658 21.8637 114.504 22.7233 114.181 23.5253C113.858 24.3273 113.372 25.0546 112.754 25.662ZM104.669 24.612C105.114 25.0716 105.649 25.4354 106.241 25.681C106.832 25.9267 107.469 26.0488 108.11 26.04C108.752 26.0526 109.389 25.9322 109.982 25.6864C110.574 25.4405 111.109 25.0746 111.551 24.612C112.462 23.6274 112.968 22.3381 112.968 21C112.968 19.6619 112.462 18.3726 111.551 17.388C111.109 16.9254 110.574 16.5595 109.982 16.3136C109.389 16.0678 108.752 15.9473 108.11 15.96C107.469 15.9511 106.832 16.0733 106.241 16.3189C105.649 16.5646 105.114 16.9284 104.669 17.388C103.771 18.3792 103.275 19.666 103.275 21C103.275 22.334 103.771 23.6208 104.669 24.612Z" fill="white" stroke="white" stroke-width="0.2" stroke-miterlimit="10"/>
<path d="M122.824 27.573C121.97 27.5863 121.122 27.4276 120.331 27.1064C119.54 26.7852 118.823 26.3082 118.222 25.704C117.004 24.4377 116.324 22.7526 116.324 21C116.324 19.2474 117.004 17.5623 118.222 16.296C118.833 15.6814 119.564 15.1983 120.37 14.8768C121.176 14.5553 122.041 14.4022 122.909 14.427C123.793 14.4021 124.671 14.5784 125.475 14.9423C126.28 15.3063 126.991 15.8483 127.553 16.527L126.434 17.619C126.02 17.0886 125.483 16.6649 124.87 16.3835C124.256 16.1022 123.584 15.9713 122.909 16.002C122.259 15.9855 121.613 16.1019 121.01 16.3439C120.407 16.5859 119.861 16.9484 119.404 17.409C118.495 18.4027 117.991 19.6982 117.991 21.042C117.991 22.3858 118.495 23.6813 119.404 24.675C119.861 25.1356 120.407 25.4981 121.01 25.7401C121.613 25.9821 122.259 26.0985 122.909 26.082C123.634 26.0615 124.346 25.8836 124.996 25.5608C125.645 25.238 126.215 24.778 126.667 24.213L127.807 25.326C127.228 26.0154 126.509 26.5739 125.696 26.964C124.797 27.3814 123.816 27.5896 122.824 27.573Z" fill="white" stroke="white" stroke-width="0.2" stroke-miterlimit="10"/>
<path d="M134.436 27.3H132.81V16.254H129.263V14.7H137.961V16.254H134.436V27.3Z" fill="white" stroke="white" stroke-width="0.2" stroke-miterlimit="10"/>
<path d="M149.15 14.7L144.358 25.326C144.242 25.752 144.034 26.1478 143.748 26.486C143.463 26.8241 143.107 27.0965 142.706 27.2843C142.304 27.4721 141.866 27.5707 141.422 27.5734C140.979 27.5762 140.539 27.4829 140.136 27.3L140.558 25.809C140.816 25.9534 141.106 26.0327 141.402 26.04C141.715 26.0556 142.024 25.9749 142.289 25.809C142.545 25.5967 142.742 25.3217 142.859 25.011L143.323 24.003L139.101 14.7H141.022L144.147 21.924L147.229 14.7H149.15Z" fill="white" stroke="white" stroke-width="0.2" stroke-miterlimit="10"/>
<path d="M150.987 27.3V14.7H160.149V27.3H158.523V16.254H152.612V27.3H150.987Z" fill="white" stroke="white" stroke-width="0.2" stroke-miterlimit="10"/>
<path d="M163.041 27.3V14.7H164.667V20.097H171V14.7H172.647V27.3H171V21.609H164.667V27.3H163.041Z" fill="white" stroke="white" stroke-width="0.2" stroke-miterlimit="10"/>
<path d="M185.904 25.662C185.295 26.269 184.571 26.7506 183.774 27.0791C182.977 27.4077 182.123 27.5768 181.26 27.5768C180.397 27.5768 179.543 27.4077 178.746 27.0791C177.949 26.7506 177.225 26.269 176.616 25.662C175.408 24.4073 174.734 22.7372 174.734 21C174.734 19.2628 175.408 17.5927 176.616 16.338C177.224 15.7316 177.946 15.2505 178.741 14.9223C179.536 14.594 180.389 14.425 181.249 14.425C182.11 14.425 182.963 14.594 183.758 14.9223C184.553 15.2505 185.275 15.7316 185.883 16.338C187.082 17.5976 187.749 19.2659 187.749 21C187.749 22.7341 187.082 24.4024 185.883 25.662H185.904ZM177.819 24.612C178.261 25.0746 178.796 25.4405 179.388 25.6864C179.981 25.9322 180.618 26.0526 181.26 26.04C181.901 26.0488 182.538 25.9267 183.129 25.681C183.721 25.4354 184.256 25.0716 184.701 24.612C185.599 23.6208 186.095 22.334 186.095 21C186.095 19.666 185.599 18.3792 184.701 17.388C184.256 16.9284 183.721 16.5646 183.129 16.3189C182.538 16.0733 181.901 15.9511 181.26 15.96C180.618 15.9473 179.981 16.0678 179.388 16.3136C178.796 16.5595 178.261 16.9254 177.819 17.388C176.908 18.3726 176.402 19.6619 176.402 21C176.402 22.3381 176.908 23.6274 177.819 24.612Z" fill="white" stroke="white" stroke-width="0.2" stroke-miterlimit="10"/>
<path d="M194.412 27.3V14.7H198.993C199.943 14.6905 200.862 15.0351 201.569 15.666C201.922 15.9705 202.203 16.3485 202.392 16.773C202.582 17.1976 202.676 17.6585 202.667 18.123C202.672 18.6887 202.51 19.2435 202.202 19.719C201.891 20.1699 201.459 20.5261 200.957 20.748C201.566 20.9553 202.102 21.3348 202.498 21.84C202.886 22.3546 203.093 22.9817 203.089 23.625C203.1 24.1091 203.003 24.5896 202.806 25.0324C202.609 25.4752 202.316 25.8694 201.949 26.187C201.216 26.8652 200.247 27.2341 199.247 27.216L194.412 27.3ZM196.038 20.097H198.993C199.27 20.1129 199.546 20.0664 199.802 19.9609C200.058 19.8555 200.287 19.6938 200.471 19.488C200.829 19.139 201.034 18.6635 201.041 18.165C201.061 17.6649 200.887 17.1763 200.556 16.8C200.378 16.6042 200.159 16.4499 199.915 16.3482C199.67 16.2465 199.406 16.2 199.141 16.212H196.101L196.038 20.097ZM196.038 25.746H199.331C199.617 25.7555 199.901 25.7021 200.164 25.5896C200.427 25.4771 200.662 25.3082 200.851 25.095C201.216 24.7077 201.419 24.1975 201.421 23.667C201.408 23.1409 201.197 22.6388 200.83 22.26C200.626 22.0474 200.38 21.8797 200.108 21.7675C199.835 21.6554 199.542 21.6014 199.247 21.609H196.038V25.746Z" fill="white" stroke="white" stroke-width="0.2" stroke-miterlimit="10"/>
<defs>
<linearGradient id="paint0_linear" x1="46.0222" y1="18.291" x2="10.7847" y2="53.715" gradientUnits="userSpaceOnUse">
<stop stop-color="#00A0FF"/>
<stop offset="0.01" stop-color="#00A1FF"/>
<stop offset="0.26" stop-color="#00BEFF"/>
<stop offset="0.51" stop-color="#00D2FF"/>
<stop offset="0.76" stop-color="#00DFFF"/>
<stop offset="1" stop-color="#00E3FF"/>
</linearGradient>
<linearGradient id="paint1_linear" x1="71.4189" y1="42" x2="20.3511" y2="42" gradientUnits="userSpaceOnUse">
<stop stop-color="#FFE000"/>
<stop offset="0.41" stop-color="#FFBD00"/>
<stop offset="0.78" stop-color="#FFA500"/>
<stop offset="1" stop-color="#FF9C00"/>
</linearGradient>
<linearGradient id="paint2_linear" x1="52.4189" y1="46.83" x2="4.62342" y2="94.8572" gradientUnits="userSpaceOnUse">
<stop stop-color="#FF3A44"/>
<stop offset="1" stop-color="#C31162"/>
</linearGradient>
<linearGradient id="paint3_linear" x1="15.4111" y1="0.378001" x2="36.7468" y2="21.8266" gradientUnits="userSpaceOnUse">
<stop stop-color="#32A071"/>
<stop offset="0.07" stop-color="#2DA771"/>
<stop offset="0.48" stop-color="#15CF74"/>
<stop offset="0.8" stop-color="#06E775"/>
<stop offset="1" stop-color="#00F076"/>
</linearGradient>
</defs>
</svg>
